<?xml version="1.0" encoding="utf-8"?>
<!-- Generator: Adobe Illustrator 27.8.1, SVG Export Plug-In . SVG Version: 6.00 Build 0)  -->
<svg version="1.1" id="Layer_1" xmlns="http://www.w3.org/2000/svg" xmlns:xlink="http://www.w3.org/1999/xlink" x="0px" y="0px"
	 viewBox="0 0 150.2 125" width="150px" xml:space="preserve">
<style type="text/css">
	.st0{fill:#0770E9;}
</style>
<path class="st0" d="M53.4,67c0.2,6,5.1,8,10.3,8c3.9,0,9.2-1,9.2-6.2c0-5.2-6.2-6.2-12.4-7.6C54.3,59.8,48,57.5,48,49.6
	c0-8.2,7.6-11.7,14.2-11.7c8.4,0,15.1,2.9,15.6,12.8h-6.3c-0.5-5.2-4.7-6.9-8.8-6.9c-3.7,0-8.1,1.1-8.1,5.2c0,4.8,6.6,5.7,12.4,7.1
	c6.3,1.4,12.4,3.7,12.4,11.7c0,9.8-8.4,12.9-16.2,12.9c-8.6,0-15.8-3.7-16.2-13.9h6.3V67z M106.3,65.7c0,3.7-3.4,9.3-11.6,9.3
	c-3.9,0-7.4-1.6-7.4-6c0-5,3.5-6.5,7.7-7.4c4.2-0.8,8.9-0.8,11.3-2.8v6.9H106.3z M116.5,74.5c-0.8,0.4-1.4,0.4-1.9,0.4
	c-2.1,0-2.1-1.4-2.1-4.6v-21c0-9.5-7.5-11.2-14.2-11.2c-8.4,0-15.8,3.6-16.2,13.8h6.3c0.2-6,4.2-7.7,9.5-7.7c4,0,8.4,1,8.4,6.8
	c0,5.1-5.9,4.6-12.8,6c-6.5,1.3-12.9,3.4-12.9,12.6c0,8.2,5.7,11.5,12.5,11.5c5.3,0,9.9-1.9,13.4-6.4c0,4.5,2.1,6.4,5.3,6.4
	c1.9,0,3.4-0.4,4.5-1.1v-5.3H116.5z M122.3,67c0.2,6,5.1,8,10.3,8c3.9,0,9.2-1,9.2-6.2c0-5.2-6.2-6.2-12.4-7.6
	c-6.2-1.4-12.4-3.7-12.4-11.6c0-8.2,7.6-11.7,14.2-11.7c8.4,0,15.1,2.9,15.6,12.8h-6.3c-0.5-5.2-4.7-6.9-8.8-6.9
	c-3.7,0-8.1,1.1-8.1,5.2c0,4.8,6.6,5.7,12.4,7.1c6.3,1.4,12.4,3.7,12.4,11.7c0,9.8-8.4,12.9-16.2,12.9c-8.6,0-15.8-3.7-16.2-13.9
	h6.3V67z M27,50.1l-1.1-1.2c-1.4-1.7-3.9-1.7-5.5-0.2c-1.8,1.4-2.3,3.9-0.8,5.6c0,0,0.1,0.2,0.5,0.6c3.3,4,7.7,9.3,7.7,9.3
	c5.5,6.8,3,15.1-4.5,19.8C16.7,88,4.6,86.6,0.3,79.7c3.3,9.7,14.1,15.9,26.3,12.9C37.1,90,48.8,76.6,36,61l-9.5-11.5L27,50.1z
	 M13.4,73l2.2,2.7c1.4,1.7,3.9,1.7,5.5,0.2c1.7-1.4,2.3-3.9,0.8-5.6c0,0-0.8-1-2.1-2.5l1.2,1.4c-3.3-3.9-7.1-8.6-7.1-8.6
	c-5.7-6.9-3.1-15.2,4.5-19.9c6.6-4.2,18.8-2.7,23,4.1c-3.3-9.7-14.2-15.9-26.3-12.9C4.7,34.7-7,48.1,5.8,63.7l9,11L13.4,73z
	 M145.8,79.8c0-1.2,0.8-2.1,1.9-2.1c1.1,0,1.9,0.8,1.9,2.1c0,1.2-0.8,2.1-1.9,2.1C146.7,81.9,145.8,81,145.8,79.8z M147.8,82.3
	c1.3,0,2.4-1,2.4-2.4c0-1.4-1.1-2.4-2.4-2.4c-1.3,0-2.4,1.1-2.4,2.4C145.3,81.3,146.4,82.3,147.8,82.3z M147.3,80.1h0.5l0.7,1.2h0.5
	l-0.8-1.2c0.4,0,0.7-0.2,0.7-0.7c0-0.6-0.4-0.8-1-0.8h-1.1v2.8h0.4v-1.2H147.3z M147.3,79.7v-0.8h0.6c0.2,0,0.6,0.1,0.6,0.4
	c0,0.5-0.4,0.5-0.7,0.5H147.3z M42.9,79.8c0-1.2,0.8-2.1,1.9-2.1c1.1,0,1.9,0.8,1.9,2.1c0,1.2-0.8,2.1-1.9,2.1
	C43.8,81.9,42.9,81,42.9,79.8z M45,82.3c1.3,0,2.4-1,2.4-2.4c0-1.4-1.1-2.4-2.4-2.4c-1.3,0-2.4,1.1-2.4,2.4
	C42.4,81.3,43.6,82.3,45,82.3z M44.4,80.1h0.5l0.7,1.2h0.5l-0.8-1.2c0.4,0,0.7-0.2,0.7-0.7c0-0.6-0.4-0.8-1-0.8h-1.1v2.8h0.5V80.1z
	 M44.4,79.7v-0.8H45c0.2,0,0.6,0.1,0.6,0.4c0,0.5-0.4,0.5-0.7,0.5H44.4z"/>
</svg>
